<?xml version="1.0" encoding="UTF-8" standalone="no"?>
<!-- Created with Inkscape (http://www.inkscape.org/) -->

<svg
   width="512"
   height="512"
   viewBox="0 0 135.46667 135.46667"
   version="1.1"
   id="svg5"
   inkscape:version="1.1.1 (3bf5ae0d25, 2021-09-20, custom)"
   sodipodi:docname="logo.svg"
   xmlns:inkscape="http://www.inkscape.org/namespaces/inkscape"
   xmlns:sodipodi="http://sodipodi.sourceforge.net/DTD/sodipodi-0.dtd"
   xmlns="http://www.w3.org/2000/svg"
   xmlns:svg="http://www.w3.org/2000/svg">
  <sodipodi:namedview
     id="namedview7"
     pagecolor="#ffffff"
     bordercolor="#666666"
     borderopacity="1.0"
     inkscape:pageshadow="2"
     inkscape:pageopacity="0.0"
     inkscape:pagecheckerboard="0"
     inkscape:document-units="mm"
     showgrid="false"
     units="px"
     width="512px"
     inkscape:zoom="0.5"
     inkscape:cx="110"
     inkscape:cy="271"
     inkscape:window-width="1360"
     inkscape:window-height="732"
     inkscape:window-x="0"
     inkscape:window-y="193"
     inkscape:window-maximized="1"
     inkscape:current-layer="layer1" />
  <defs
     id="defs2" />
  <g
     inkscape:label="Capa 1"
     inkscape:groupmode="layer"
     id="layer1">
    <path
       style="fill:#ffffff;fill-opacity:1;stroke:none;stroke-width:0.264583px;stroke-linecap:butt;stroke-linejoin:miter;stroke-opacity:1"
       d="m 23.61792,64.26193 0.189136,5.840389 c 3.902359,12.274167 8.492349,13.560744 14.617397,15.530936 L 48.230879,74.052519 C 34.462552,72.307997 29.298711,68.214398 23.61792,64.26193 Z"
       id="path1163"
       sodipodi:nodetypes="ccccc" />
    <path
       style="fill:#ffffff;fill-opacity:1;stroke:none;stroke-width:0.264583px;stroke-linecap:butt;stroke-linejoin:miter;stroke-opacity:1"
       d="m 48.301692,113.78974 c -0.286498,0.36446 -1.56529,2.29583 -1.56529,2.29583 10.352904,20.68555 28.078949,19.00335 30.360098,17.5867 l -0.468172,-1.29822 c -4.261313,-0.0208 -8.729059,1.37447 -11.906904,-6.07824 1.738156,2.13305 5.186549,5.52943 11.344664,3.5932 -0.111998,-4.64648 -2.02572,-16.47227 -2.083154,-36.113137 l -0.889487,0.231526 -3.117107,3.875574 -3.728394,-11.206281 c -4.246353,3.105086 -8.391831,7.242392 -12.163367,15.206188 l 12.104632,7.64519 h 0.647422 l 0.738391,-1.82527 0.07479,3.4893 -0.981567,-0.26782 c -0.04075,6.8316 -11.291968,16.37033 -18.366555,2.86546 z"
       id="path3733"
       sodipodi:nodetypes="ccccccccccccccccc" />
    <path
       style="fill:#ffffff;fill-opacity:1;stroke:none;stroke-width:0.264583px;stroke-linecap:butt;stroke-linejoin:miter;stroke-opacity:1"
       d="m 82.52086,106.83029 c -0.970173,-9.876317 0.295212,-18.374457 2.248694,-26.448398 1.694705,9.833297 9.007832,11.753911 13.611889,17.489834 -6.091464,3.388904 -17.536622,10.267644 -15.860583,8.958564 z"
       id="path8793"
       sodipodi:nodetypes="cccc" />
    <path
       style="fill:#ffffff;fill-opacity:1;stroke:none;stroke-width:0.264583px;stroke-linecap:butt;stroke-linejoin:miter;stroke-opacity:1"
       d="m 83.30485,131.29816 -0.691497,-13.48542 c 5.649288,5.52902 16.314103,6.46002 16.740389,-16.35147 l 1.113798,-0.0212 c 4.54844,14.90458 -14.479627,31.87444 -17.16269,29.85809 z"
       id="path9369"
       sodipodi:nodetypes="ccccc" />
    <path
       style="fill:#ffffff;fill-opacity:1;stroke:none;stroke-width:0.264583px;stroke-linecap:butt;stroke-linejoin:miter;stroke-opacity:1"
       d="m 70.193497,95.406 3.758208,-4.236588 c 0.988418,-6.741168 2.053511,-13.428355 4.475583,-19.160191 0.04871,-0.892791 -0.121309,-1.754431 -0.290732,-2.616155 -0.346654,-0.255886 -0.682006,-0.569291 -1.206373,0.07936 l -1.636385,6.645383 C 73.879581,72.104095 72.295482,68.451867 70.096816,66.107352 l -1.83936,-0.06356 C 66.083842,77.051229 67.476318,86.515277 70.193497,95.406 Z"
       id="path10477"
       sodipodi:nodetypes="ccccccccc" />
    <path
       style="fill:#ffffff;fill-opacity:1;stroke:none;stroke-width:0.264583px;stroke-linecap:butt;stroke-linejoin:miter;stroke-opacity:1"
       d="m 70.751826,64.741855 c 1.725745,2.615066 2.979672,5.12022 3.989491,7.568507 l 0.81566,0.16433 c 0.496879,-2.148419 0.481672,-4.645676 2.302994,-5.891868 -0.114598,-2.242989 -0.35279,-4.577531 0.107678,-6.394532 0.416874,-1.732717 1.127896,-2.873343 2.259689,-3.167002 -0.714879,-7.2855 -2.224436,-14.221618 -4.174093,-20.964247 -1.2126,0.187119 -2.345182,0.408811 -4.506468,0.186034 -1.121889,1.563262 -2.244718,3.105421 -2.960955,4.582816 0.115536,1.908971 2.247073,-0.484998 3.290015,0.281859 z"
       id="path11842"
       sodipodi:nodetypes="ccccccccccc" />
    <path
       style="fill:#ffffff;fill-opacity:1;stroke:none;stroke-width:0.264583px;stroke-linecap:butt;stroke-linejoin:miter;stroke-opacity:1"
       d="m 66.263043,34.075602 c -0.142344,0.193944 0.155667,6.763608 0.24851,6.832907 0.109714,0.151886 0.336889,0.127096 0.606144,0.03901 1.548384,-2.187343 3.047478,-4.279092 4.190982,-5.681208 -0.58614,-1.036989 -0.864066,-1.946011 -1.116955,-2.844638 -1.016229,0.50778 -2.006562,1.011716 -3.928681,1.653929 z"
       id="path13249"
       sodipodi:nodetypes="cccccc" />
    <path
       style="fill:#ffffff;fill-opacity:1;stroke:none;stroke-width:0.264583px;stroke-linecap:butt;stroke-linejoin:miter;stroke-opacity:1"
       d="m 66.192198,32.197569 c 0.08642,-1.199436 0.09022,-2.632127 0.03034,-4.244599 1.441635,-1.347515 2.437511,-2.668671 3.437149,-3.990049 l 1.710555,0.595832 c -0.517132,2.279613 -1.058604,4.566582 -1.087405,6.698579 -1.56592,0.721147 -3.029396,1.235895 -4.090639,0.940237 z"
       id="path13706"
       sodipodi:nodetypes="cccccc" />
    <path
       style="fill:#ffffff;fill-opacity:1;stroke:none;stroke-width:0.264583px;stroke-linecap:butt;stroke-linejoin:miter;stroke-opacity:1"
       d="m 70.35116,22.833595 1.556316,0.696705 c 2.497085,-4.789248 4.49399,-7.622086 6.860643,-9.140537 C 78.140178,9.7683749 77.569996,5.1188421 76.443908,0.7401892 74.433635,8.1068324 73.990068,15.638516 70.35116,22.833595 Z"
       id="path14277"
       sodipodi:nodetypes="ccccc" />
    <path
       style="fill:#ffffff;fill-opacity:1;stroke:none;stroke-width:0.264583px;stroke-linecap:butt;stroke-linejoin:miter;stroke-opacity:1"
       d="m 92.425442,72.201931 5.871565,7.318798 c 6.813683,1.708725 21.688203,-5.490467 21.768423,-18.410207 -12.27135,7.695376 -18.73929,9.502018 -27.639988,11.091409 z"
       id="path15076"
       sodipodi:nodetypes="cccc" />
    <path
       style="fill:#ffffff;fill-opacity:1;stroke:none;stroke-width:0.264583px;stroke-linecap:butt;stroke-linejoin:miter;stroke-opacity:1"
       d="m 82.093167,66.960858 2.817984,0.839226 c 4.371508,-7.576619 6.683556,-8.832731 9.735836,-12.360624 0.07725,-0.476679 0.482475,-1.029991 -0.158882,-1.338771 -1.822336,0.6039 -3.019336,1.764322 -4.465876,2.702664 1.208065,-1.833319 2.113621,-3.730247 2.488525,-5.738757 0.0035,-0.473571 -0.433205,-0.468182 -0.945134,-0.380886 -1.048979,1.555337 -1.924311,3.207043 -2.487263,5.03211 0.254927,-1.736451 0.456269,-3.452784 0.511207,-5.114155 -0.226388,-0.154708 -0.467066,-0.165155 -0.729269,0.04168 -0.854669,1.541528 -1.405951,3.396227 -1.983472,5.223841 -0.06717,-1.327827 0.01168,-2.635836 -0.365919,-4.005792 -0.341208,-0.115118 -0.67936,-0.144403 -1.008161,0.08898 -0.191035,1.535566 -0.243539,3.424148 -0.359754,5.150376 l -2.796237,8.643717 z"
       id="path16293"
       sodipodi:nodetypes="cccccccccccccccc" />
    <ellipse
       style="fill:#ffffff;fill-opacity:1;stroke:none;stroke-width:0.264999;stroke-miterlimit:4;stroke-dasharray:none;stroke-opacity:1"
       id="path17615"
       cx="84.679878"
       cy="39.918613"
       rx="5.1997852"
       ry="4.731925" />
    <ellipse
       style="fill:#ffffff;fill-opacity:1;stroke:none;stroke-width:0.264999;stroke-miterlimit:4;stroke-dasharray:none;stroke-opacity:1"
       id="path17619"
       cx="92.848038"
       cy="35.135265"
       rx="3.2702889"
       ry="3.3120635" />
    <ellipse
       style="fill:#ffffff;fill-opacity:1;stroke:none;stroke-width:0.264999;stroke-miterlimit:4;stroke-dasharray:none;stroke-opacity:1"
       id="path17627"
       cx="104.74812"
       cy="49.607319"
       rx="3.5836639"
       ry="3.5364342" />
    <ellipse
       style="fill:#ffffff;fill-opacity:1;stroke:none;stroke-width:0.264999;stroke-miterlimit:4;stroke-dasharray:none;stroke-opacity:1"
       id="path17629"
       cx="99.549911"
       cy="40.941845"
       rx="4.5092335"
       ry="3.5086334" />
  </g>
  <g
     inkscape:groupmode="layer"
     id="layer2"
     inkscape:label="Capa 2" />
</svg>
